<svg width="37" height="37" viewBox="0 0 37 37" fill="none" xmlns="http://www.w3.org/2000/svg">
<path d="M18.5204 0.5C17.1168 0.5 15.7507 0.660642 14.4401 0.965194C7.77547 2.50937 2.52982 7.75502 0.985641 14.419C0.681089 15.7303 0.520447 17.0964 0.520447 18.5C0.520447 28.4411 8.57935 36.5 18.5204 36.5C19.9241 36.5 21.2902 36.3394 22.6014 36.0348C29.2654 34.4906 34.5111 29.2456 36.0559 22.5823C36.3605 21.2711 36.5211 19.9043 36.5211 18.5C36.5211 8.5589 28.4615 0.5 18.5204 0.5ZM18.5204 29.7724C17.1918 29.7724 15.9174 29.5428 14.734 29.1205C11.5546 27.9866 9.0345 25.4665 7.90063 22.2871C7.47828 21.1037 7.24869 19.8286 7.24869 18.5C7.24869 12.2744 12.2949 7.22758 18.5204 7.22758C19.8491 7.22758 21.1235 7.45716 22.3069 7.87952C25.4863 9.01339 28.0071 11.5335 29.1409 14.7129C29.5633 15.8963 29.7929 17.1714 29.7929 18.5C29.7929 24.7256 24.746 29.7724 18.5204 29.7724Z" fill="url(#paint0_linear_84_236)"/>
<defs>
<linearGradient id="paint0_linear_84_236" x1="31.076" y1="6.63588" x2="6.35579" y2="29.9953" gradientUnits="userSpaceOnUse">
<stop stop-color="#F38856"/>
<stop offset="0.23" stop-color="#F0625C"/>
<stop offset="1" stop-color="#5C3DAB"/>
</linearGradient>
</defs>
</svg>
